<?xml version="1.0" encoding="UTF-8"?>
<svg id="Layer_1" data-name="Layer 1" xmlns="http://www.w3.org/2000/svg" viewBox="0 0 1489.86 170">
  <defs>
    <style>
      .cls-1 {
        fill: #06213b;
      }

      .cls-1, .cls-2 {
        stroke-width: 0px;
      }

      .cls-2 {
        fill: #4169e2;
      }
    </style>
  </defs>
  <g>
    <path class="cls-1" d="m326.82,51c6.5-11.53,15.38-20.55,26.63-27.06,11.25-6.51,23.73-9.76,37.45-9.76,16.13,0,30.2,3.89,42.23,11.67,12.02,7.78,20.79,18.81,26.31,33.1h-23.13c-4.1-8.91-10.01-15.77-17.72-20.58-7.71-4.81-16.94-7.22-27.69-7.22s-19.6,2.41-27.8,7.22c-8.2,4.81-14.64,11.64-19.31,20.48-4.67,8.84-7,19.2-7,31.09s2.34,22.03,7,30.88c4.67,8.84,11.1,15.67,19.31,20.48,8.2,4.81,17.47,7.22,27.8,7.22s19.98-2.37,27.69-7.11c7.71-4.74,13.61-11.56,17.72-20.48h23.13c-5.52,14.15-14.29,25.08-26.31,32.78-12.03,7.71-26.1,11.57-42.23,11.57-13.72,0-26.21-3.22-37.45-9.66-11.25-6.44-20.13-15.38-26.63-26.84-6.51-11.46-9.76-24.4-9.76-38.83s3.25-27.41,9.76-38.94Z"/>
    <path class="cls-1" d="m493.39,6.97v157.03h-19.31V6.97h19.31Z"/>
    <path class="cls-1" d="m533.39,158.47c-8.84-4.95-15.78-11.99-20.79-21.11-5.02-9.13-7.53-19.7-7.53-31.72s2.58-22.39,7.74-31.51c5.16-9.12,12.2-16.13,21.11-21.01,8.91-4.88,18.88-7.32,29.92-7.32s21.01,2.44,29.92,7.32c8.91,4.88,15.95,11.85,21.11,20.9,5.16,9.06,7.74,19.6,7.74,31.62s-2.65,22.6-7.96,31.72c-5.3,9.12-12.49,16.16-21.54,21.11-9.06,4.95-19.1,7.43-30.13,7.43s-20.76-2.47-29.6-7.43Zm49.12-14.43c6.08-3.25,11-8.13,14.75-14.64,3.74-6.51,5.62-14.43,5.62-23.77s-1.84-17.26-5.52-23.77c-3.68-6.51-8.49-11.35-14.43-14.54-5.94-3.18-12.38-4.77-19.31-4.77s-13.55,1.59-19.42,4.77c-5.87,3.18-10.58,8.03-14.11,14.54-3.54,6.51-5.3,14.43-5.3,23.77s1.73,17.47,5.2,23.98c3.46,6.51,8.1,11.35,13.9,14.54,5.8,3.18,12.16,4.77,19.1,4.77s13.44-1.62,19.52-4.88Z"/>
    <path class="cls-1" d="m737.2,47.71v116.28h-19.31v-17.19c-3.68,5.94-8.81,10.58-15.38,13.9-6.58,3.32-13.83,4.99-21.75,4.99-9.05,0-17.19-1.87-24.4-5.62-7.22-3.75-12.91-9.37-17.08-16.87-4.17-7.5-6.26-16.62-6.26-27.37V47.71h19.1v65.57c0,11.46,2.9,20.26,8.7,26.42,5.8,6.15,13.72,9.23,23.77,9.23s18.46-3.18,24.4-9.55c5.94-6.37,8.91-15.63,8.91-27.8v-63.87h19.31Z"/>
    <path class="cls-1" d="m755.66,74.13c4.81-8.98,11.42-15.95,19.84-20.9,8.42-4.95,17.86-7.43,28.33-7.43,9.05,0,17.47,2.09,25.25,6.26,7.78,4.17,13.72,9.65,17.83,16.44V6.97h19.52v157.03h-19.52v-21.86c-3.82,6.93-9.48,12.63-16.98,17.08-7.5,4.46-16.27,6.68-26.31,6.68s-19.7-2.55-28.12-7.64c-8.42-5.09-15.03-12.24-19.84-21.43-4.81-9.19-7.21-19.66-7.21-31.41s2.4-22.31,7.21-31.3Zm85.94,8.59c-3.54-6.51-8.31-11.49-14.32-14.96-6.01-3.46-12.63-5.2-19.84-5.2s-13.79,1.7-19.74,5.09-10.68,8.35-14.22,14.85c-3.54,6.51-5.3,14.15-5.3,22.92s1.77,16.66,5.3,23.24c3.53,6.58,8.28,11.6,14.22,15.06,5.94,3.47,12.52,5.2,19.74,5.2s13.83-1.73,19.84-5.2c6.01-3.46,10.78-8.49,14.32-15.06,3.53-6.58,5.3-14.25,5.3-23.02s-1.77-16.41-5.3-22.92Z"/>
    <path class="cls-1" d="m973.91,94.39c4.46,3.54,7.99,7.92,10.61,13.16,2.62,5.24,3.93,10.82,3.93,16.76,0,7.5-1.91,14.25-5.73,20.27-3.82,6.01-9.37,10.75-16.66,14.22-7.29,3.47-15.88,5.2-25.78,5.2h-55.17V16.09h53.05c10.04,0,18.6,1.66,25.68,4.99,7.07,3.33,12.38,7.82,15.91,13.48,3.53,5.66,5.3,12.03,5.3,19.1,0,8.77-2.37,16.02-7.11,21.75-4.74,5.73-11,9.87-18.78,12.41,5.37.85,10.29,3.05,14.75,6.58Zm-69.49-14.43h32.47c9.05,0,16.05-2.12,21.01-6.36,4.95-4.25,7.43-10.11,7.43-17.61s-2.48-13.37-7.43-17.61c-4.95-4.24-12.09-6.37-21.43-6.37h-32.04v47.96Zm56.66,61.33c5.37-4.53,8.06-10.82,8.06-18.89s-2.83-14.67-8.49-19.42c-5.66-4.74-13.23-7.11-22.71-7.11h-33.53v52.2h34.16c9.62,0,17.12-2.26,22.49-6.79Z"/>
    <path class="cls-1" d="m1001.17,74.13c4.81-8.98,11.42-15.95,19.84-20.9,8.42-4.95,17.79-7.43,28.12-7.43s19.03,2.19,26.52,6.58c7.5,4.39,13.08,9.9,16.76,16.55v-21.22h19.52v116.28h-19.52v-21.64c-3.82,6.79-9.52,12.41-17.08,16.87-7.57,4.46-16.38,6.68-26.42,6.68s-19.66-2.55-28.01-7.64c-8.35-5.09-14.93-12.24-19.74-21.43-4.81-9.19-7.21-19.66-7.21-31.41s2.4-22.31,7.21-31.3Zm85.94,8.59c-3.54-6.51-8.31-11.49-14.32-14.96-6.01-3.46-12.63-5.2-19.84-5.2s-13.79,1.7-19.74,5.09-10.68,8.35-14.22,14.85c-3.54,6.51-5.3,14.15-5.3,22.92s1.77,16.66,5.3,23.24c3.53,6.58,8.28,11.6,14.22,15.06,5.94,3.47,12.52,5.2,19.74,5.2s13.83-1.73,19.84-5.2c6.01-3.46,10.78-8.49,14.32-15.06,3.53-6.58,5.3-14.25,5.3-23.02s-1.77-16.41-5.3-22.92Z"/>
    <path class="cls-1" d="m1221.65,58.42c8.77,8.56,13.16,20.9,13.16,37.03v68.54h-19.1v-65.78c0-11.6-2.9-20.48-8.7-26.63-5.8-6.15-13.72-9.23-23.77-9.23s-18.29,3.18-24.3,9.55c-6.01,6.36-9.02,15.63-9.02,27.8v64.3h-19.31V47.71h19.31v16.55c3.82-5.94,9.02-10.54,15.59-13.79,6.58-3.25,13.83-4.88,21.75-4.88,14.14,0,25.6,4.28,34.38,12.84Z"/>
    <path class="cls-1" d="m1317.14,163.99l-45.62-51.35v51.35h-19.31V6.97h19.31v92.31l44.77-51.56h26.95l-54.75,57.93,54.96,58.35h-26.31Z"/>
    <path class="cls-1" d="m1348.12,25c-2.55-2.55-3.82-5.66-3.82-9.34s1.27-6.79,3.82-9.34,5.66-3.82,9.34-3.82,6.54,1.27,9.02,3.82c2.47,2.55,3.71,5.66,3.71,9.34s-1.24,6.79-3.71,9.34c-2.48,2.55-5.48,3.82-9.02,3.82s-6.79-1.27-9.34-3.82Zm18.67,22.71v116.28h-19.31V47.71h19.31Z"/>
    <path class="cls-1" d="m1476.7,58.42c8.77,8.56,13.16,20.9,13.16,37.03v68.54h-19.1v-65.78c0-11.6-2.9-20.48-8.7-26.63-5.8-6.15-13.72-9.23-23.77-9.23s-18.29,3.18-24.3,9.55c-6.01,6.36-9.02,15.63-9.02,27.8v64.3h-19.31V47.71h19.31v16.55c3.82-5.94,9.02-10.54,15.59-13.79,6.58-3.25,13.83-4.88,21.75-4.88,14.14,0,25.6,4.28,34.38,12.84Z"/>
  </g>
  <path class="cls-2" d="m99.13,170h-45.07c-29.85,0-54.05-24.2-54.05-54.05s24.2-54.05,54.05-54.05c3.23,0,6.4.3,9.48.84C72.59,26.69,105.21,0,144.07,0c13.31,0,25.88,3.14,37.03,8.71l-89.32,97.72h45.33l-37.98,63.57Z"/>
  <path class="cls-1" d="m224.93,44.69c-2.37,0-4.7.14-7,.4-6.88-13.36-17.28-24.62-29.97-32.54l-40.72,71.49h43.46l-80.52,85.96h116.94v-.05c33.58-1.16,60.46-28.73,60.46-62.6s-28.05-62.65-62.65-62.65"/>
</svg>